<svg width="41" height="41" viewBox="0 0 41 41" fill="none" xmlns="http://www.w3.org/2000/svg">
<path d="M11.9583 37.5833C11.0188 37.5833 10.2147 37.2491 9.54618 36.5805C8.87765 35.912 8.54282 35.1074 8.54168 34.1667C8.54168 33.2271 8.87651 32.423 9.54618 31.7545C10.2158 31.086 11.0199 30.7511 11.9583 30.75C12.8979 30.75 13.7026 31.0848 14.3722 31.7545C15.0419 32.4242 15.3761 33.2282 15.375 34.1667C15.375 35.1063 15.0407 35.9109 14.3722 36.5805C13.7037 37.2502 12.8991 37.5845 11.9583 37.5833ZM29.0417 37.5833C28.1021 37.5833 27.298 37.2491 26.6295 36.5805C25.961 35.912 25.6261 35.1074 25.625 34.1667C25.625 33.2271 25.9598 32.423 26.6295 31.7545C27.2992 31.086 28.1032 30.7511 29.0417 30.75C29.9813 30.75 30.7859 31.0848 31.4556 31.7545C32.1252 32.4242 32.4595 33.2282 32.4583 34.1667C32.4583 35.1063 32.1241 35.9109 31.4556 36.5805C30.787 37.2502 29.9824 37.5845 29.0417 37.5833ZM8.88334 6.83334H34.0813C34.7361 6.83334 35.2344 7.12546 35.576 7.70971C35.9177 8.29396 35.932 8.88448 35.6188 9.48126L29.5542 20.4146C29.241 20.984 28.8213 21.4254 28.2951 21.7385C27.769 22.0517 27.1921 22.2083 26.5646 22.2083H13.8375L11.9583 25.625H32.4583V29.0417H11.9583C10.6771 29.0417 9.70904 28.4796 9.05418 27.3555C8.39932 26.2315 8.37084 25.1136 8.96876 24.0021L11.275 19.8167L5.12501 6.83334H1.70834V3.41667H7.26043L8.88334 6.83334Z" fill="white"/>
</svg>
